<mxfile host="app.diagrams.net" modified="2020-12-29T09:36:06.550Z" agent="5.0 (Windows NT 10.0; Win64; x64) AppleWebKit/537.36 (KHTML, like Gecko) Chrome/86.0.4240.111 Safari/537.36" etag="4wQtuMsqUbzdAKnFDcW3" version="14.1.3" type="github">
  <diagram id="AMZaD16zjiI2ikn4sn_C" name="第 1 页">
    <mxGraphModel dx="1208" dy="757" grid="0" gridSize="10" guides="1" tooltips="1" connect="1" arrows="1" fold="1" page="1" pageScale="1" pageWidth="1169" pageHeight="827" background="none" math="0" shadow="1">
      <root>
        <mxCell id="0" />
        <mxCell id="1" parent="0" />
        <mxCell id="q9yflRM0A-MpA3asN30z-3" style="edgeStyle=orthogonalEdgeStyle;rounded=0;orthogonalLoop=1;jettySize=auto;html=1;exitX=0.5;exitY=1;exitDx=0;exitDy=0;entryX=0.5;entryY=0;entryDx=0;entryDy=0;" parent="1" source="q9yflRM0A-MpA3asN30z-1" target="q9yflRM0A-MpA3asN30z-2" edge="1">
          <mxGeometry relative="1" as="geometry" />
        </mxCell>
        <mxCell id="q9yflRM0A-MpA3asN30z-1" value="调用逻辑" style="rounded=1;whiteSpace=wrap;html=1;fillColor=#f8cecc;strokeColor=#b85450;" parent="1" vertex="1">
          <mxGeometry x="148" y="85" width="90" height="30" as="geometry" />
        </mxCell>
        <mxCell id="q9yflRM0A-MpA3asN30z-5" style="edgeStyle=orthogonalEdgeStyle;rounded=0;orthogonalLoop=1;jettySize=auto;html=1;exitX=0.5;exitY=1;exitDx=0;exitDy=0;" parent="1" source="q9yflRM0A-MpA3asN30z-2" target="q9yflRM0A-MpA3asN30z-4" edge="1">
          <mxGeometry relative="1" as="geometry" />
        </mxCell>
        <mxCell id="q9yflRM0A-MpA3asN30z-2" value="Proxy" style="rounded=1;whiteSpace=wrap;html=1;fillColor=#f8cecc;strokeColor=#b85450;" parent="1" vertex="1">
          <mxGeometry x="148" y="155.5" width="90" height="30" as="geometry" />
        </mxCell>
        <mxCell id="q9yflRM0A-MpA3asN30z-6" style="edgeStyle=orthogonalEdgeStyle;rounded=0;orthogonalLoop=1;jettySize=auto;html=1;entryX=0;entryY=0.5;entryDx=0;entryDy=0;" parent="1" source="q9yflRM0A-MpA3asN30z-4" target="q9yflRM0A-MpA3asN30z-7" edge="1">
          <mxGeometry relative="1" as="geometry">
            <mxPoint x="598" y="313" as="targetPoint" />
            <Array as="points">
              <mxPoint x="574" y="313" />
              <mxPoint x="574" y="313" />
            </Array>
          </mxGeometry>
        </mxCell>
        <mxCell id="q9yflRM0A-MpA3asN30z-4" value="Invoker" style="rounded=1;whiteSpace=wrap;html=1;fillColor=#f8cecc;strokeColor=#b85450;" parent="1" vertex="1">
          <mxGeometry x="148" y="298" width="90" height="30" as="geometry" />
        </mxCell>
        <mxCell id="q9yflRM0A-MpA3asN30z-7" value="Exporter" style="rounded=1;whiteSpace=wrap;html=1;fillColor=#d5e8d4;strokeColor=#82b366;" parent="1" vertex="1">
          <mxGeometry x="778" y="298" width="140" height="30" as="geometry" />
        </mxCell>
        <mxCell id="q9yflRM0A-MpA3asN30z-10" style="edgeStyle=orthogonalEdgeStyle;rounded=0;orthogonalLoop=1;jettySize=auto;html=1;entryX=0.5;entryY=0;entryDx=0;entryDy=0;" parent="1" source="q9yflRM0A-MpA3asN30z-8" target="q9yflRM0A-MpA3asN30z-7" edge="1">
          <mxGeometry relative="1" as="geometry" />
        </mxCell>
        <mxCell id="q9yflRM0A-MpA3asN30z-8" value="Invoker" style="rounded=1;whiteSpace=wrap;html=1;fillColor=#d5e8d4;strokeColor=#82b366;" parent="1" vertex="1">
          <mxGeometry x="778" y="173" width="140" height="30" as="geometry" />
        </mxCell>
        <mxCell id="q9yflRM0A-MpA3asN30z-14" style="edgeStyle=orthogonalEdgeStyle;rounded=0;orthogonalLoop=1;jettySize=auto;html=1;entryX=0.5;entryY=0;entryDx=0;entryDy=0;" parent="1" source="q9yflRM0A-MpA3asN30z-11" target="q9yflRM0A-MpA3asN30z-8" edge="1">
          <mxGeometry relative="1" as="geometry" />
        </mxCell>
        <mxCell id="q9yflRM0A-MpA3asN30z-11" value="服务发现" style="rounded=1;whiteSpace=wrap;html=1;fillColor=#d5e8d4;strokeColor=#82b366;" parent="1" vertex="1">
          <mxGeometry x="778" y="85" width="140" height="30" as="geometry" />
        </mxCell>
        <mxCell id="q9yflRM0A-MpA3asN30z-12" value="Provider" style="text;html=1;strokeColor=none;fillColor=none;align=center;verticalAlign=middle;whiteSpace=wrap;rounded=0;" parent="1" vertex="1">
          <mxGeometry x="796" y="43" width="78" height="27" as="geometry" />
        </mxCell>
        <mxCell id="q9yflRM0A-MpA3asN30z-13" value="Consumer" style="text;html=1;strokeColor=none;fillColor=none;align=center;verticalAlign=middle;whiteSpace=wrap;rounded=0;" parent="1" vertex="1">
          <mxGeometry x="176" y="41" width="40" height="20" as="geometry" />
        </mxCell>
        <mxCell id="q9yflRM0A-MpA3asN30z-15" value="网络调用" style="text;html=1;strokeColor=none;fillColor=none;align=center;verticalAlign=middle;whiteSpace=wrap;rounded=0;" parent="1" vertex="1">
          <mxGeometry x="378" y="318" width="90" height="20" as="geometry" />
        </mxCell>
        <mxCell id="q9yflRM0A-MpA3asN30z-18" value="&lt;span&gt;Invocation:&lt;/span&gt;&lt;br&gt;&lt;br&gt;&lt;span&gt;抽象了调用一次目标服务和方法信息，相关参数信息，具体的参数值，以及一些附加信息&lt;/span&gt;" style="rounded=1;whiteSpace=wrap;html=1;fontColor=#333333;align=left;dashed=1;dashPattern=1 2;fillColor=#f5f5f5;strokeColor=#666666;" parent="1" vertex="1">
          <mxGeometry x="108" y="408" width="480" height="60" as="geometry" />
        </mxCell>
        <mxCell id="q9yflRM0A-MpA3asN30z-19" value="&lt;span&gt;Invoker :&lt;br&gt;- getInterfacce() : 服务接口&lt;/span&gt;&lt;br&gt;&lt;span&gt;- invoke(Invocation) ： 进行一次调用&lt;/span&gt;" style="rounded=1;whiteSpace=wrap;html=1;dashed=1;align=left;dashPattern=1 2;fillColor=#f5f5f5;strokeColor=#666666;fontColor=#333333;" parent="1" vertex="1">
          <mxGeometry x="108" y="348" width="210" height="50" as="geometry" />
        </mxCell>
        <mxCell id="q9yflRM0A-MpA3asN30z-20" value="Result result = Invoker.invoke()&lt;br&gt;&lt;br&gt;result , 方法调用的返回值， 其中包含了被调用方返回或者异常，以及附加的信息" style="rounded=1;whiteSpace=wrap;html=1;fontColor=#333333;align=left;dashed=1;dashPattern=1 2;fillColor=#f5f5f5;strokeColor=#666666;verticalAlign=top;" parent="1" vertex="1">
          <mxGeometry x="108" y="478" width="480" height="60" as="geometry" />
        </mxCell>
        <mxCell id="q9yflRM0A-MpA3asN30z-22" value="&lt;span style=&quot;color: rgb(0 , 204 , 0)&quot;&gt;AbstractProxyInvoker&lt;/span&gt;" style="rounded=1;whiteSpace=wrap;html=1;fillColor=#d5e8d4;strokeColor=#82b366;" parent="1" vertex="1">
          <mxGeometry x="778" y="203" width="140" height="30" as="geometry" />
        </mxCell>
        <mxCell id="q9yflRM0A-MpA3asN30z-23" value="业务 接口会被包装成一个 AbstractProxyInvoker" style="text;html=1;strokeColor=none;fillColor=none;align=center;verticalAlign=middle;whiteSpace=wrap;rounded=0;dashed=1;dashPattern=1 2;fontColor=#00CC00;" parent="1" vertex="1">
          <mxGeometry x="928" y="165" width="120" height="50" as="geometry" />
        </mxCell>
        <mxCell id="q9yflRM0A-MpA3asN30z-24" value="暴露Invoker 的实现" style="text;html=1;strokeColor=none;fillColor=none;align=center;verticalAlign=middle;whiteSpace=wrap;rounded=0;dashed=1;dashPattern=1 2;fontColor=#00CC00;" parent="1" vertex="1">
          <mxGeometry x="928" y="300.5" width="110" height="25" as="geometry" />
        </mxCell>
        <mxCell id="q9yflRM0A-MpA3asN30z-25" value="Exporter:&lt;br&gt;&amp;nbsp;- getInvoker() : 获取底层封装的Invoker对象&lt;br&gt;&amp;nbsp;- unexport() ： 取消发布底层的Invoker对象" style="rounded=1;whiteSpace=wrap;html=1;dashed=1;align=left;dashPattern=1 2;fillColor=#f5f5f5;strokeColor=#666666;fontColor=#333333;verticalAlign=top;" parent="1" vertex="1">
          <mxGeometry x="748" y="348" width="280" height="60" as="geometry" />
        </mxCell>
        <mxCell id="q9yflRM0A-MpA3asN30z-29" style="edgeStyle=orthogonalEdgeStyle;rounded=0;orthogonalLoop=1;jettySize=auto;html=1;exitX=1;exitY=0.5;exitDx=0;exitDy=0;fontColor=#00CC00;entryX=0;entryY=0.5;entryDx=0;entryDy=0;" parent="1" source="q9yflRM0A-MpA3asN30z-26" target="q9yflRM0A-MpA3asN30z-28" edge="1">
          <mxGeometry relative="1" as="geometry" />
        </mxCell>
        <mxCell id="q9yflRM0A-MpA3asN30z-26" value="服务导出流程" style="rounded=0;whiteSpace=wrap;html=1;align=center;fillColor=#fff2cc;strokeColor=#d6b656;" parent="1" vertex="1">
          <mxGeometry x="76" y="840" width="90" height="40" as="geometry" />
        </mxCell>
        <mxCell id="q9yflRM0A-MpA3asN30z-31" style="edgeStyle=orthogonalEdgeStyle;rounded=0;orthogonalLoop=1;jettySize=auto;html=1;exitX=1;exitY=0.5;exitDx=0;exitDy=0;entryX=0;entryY=0.5;entryDx=0;entryDy=0;fontColor=#00CC00;" parent="1" source="q9yflRM0A-MpA3asN30z-28" target="q9yflRM0A-MpA3asN30z-30" edge="1">
          <mxGeometry relative="1" as="geometry" />
        </mxCell>
        <mxCell id="q9yflRM0A-MpA3asN30z-28" value="遍历ConfigManager 中service的列表" style="rounded=0;whiteSpace=wrap;html=1;align=center;fillColor=#fff2cc;strokeColor=#d6b656;" parent="1" vertex="1">
          <mxGeometry x="231" y="842.5" width="220" height="35" as="geometry" />
        </mxCell>
        <mxCell id="q9yflRM0A-MpA3asN30z-32" style="edgeStyle=orthogonalEdgeStyle;rounded=0;orthogonalLoop=1;jettySize=auto;html=1;exitX=1;exitY=0.5;exitDx=0;exitDy=0;fontColor=#00CC00;entryX=0;entryY=0.5;entryDx=0;entryDy=0;" parent="1" source="q9yflRM0A-MpA3asN30z-30" target="q9yflRM0A-MpA3asN30z-33" edge="1">
          <mxGeometry relative="1" as="geometry">
            <mxPoint x="121" y="1110" as="targetPoint" />
          </mxGeometry>
        </mxCell>
        <mxCell id="q9yflRM0A-MpA3asN30z-30" value="参数检查" style="rounded=0;whiteSpace=wrap;html=1;align=center;fillColor=#fff2cc;strokeColor=#d6b656;" parent="1" vertex="1">
          <mxGeometry x="511" y="845" width="90" height="30" as="geometry" />
        </mxCell>
        <mxCell id="q9yflRM0A-MpA3asN30z-34" style="edgeStyle=orthogonalEdgeStyle;rounded=0;orthogonalLoop=1;jettySize=auto;html=1;exitX=1;exitY=0.5;exitDx=0;exitDy=0;fontColor=#00CC00;entryX=0;entryY=0.5;entryDx=0;entryDy=0;" parent="1" source="q9yflRM0A-MpA3asN30z-33" target="q9yflRM0A-MpA3asN30z-35" edge="1">
          <mxGeometry relative="1" as="geometry">
            <mxPoint x="121" y="1230" as="targetPoint" />
          </mxGeometry>
        </mxCell>
        <mxCell id="q9yflRM0A-MpA3asN30z-33" value="多协议注册中心导出" style="rounded=0;whiteSpace=wrap;html=1;align=center;fillColor=#fff2cc;strokeColor=#d6b656;" parent="1" vertex="1">
          <mxGeometry x="706" y="842.5" width="135" height="35" as="geometry" />
        </mxCell>
        <mxCell id="q9yflRM0A-MpA3asN30z-70" style="edgeStyle=orthogonalEdgeStyle;rounded=0;orthogonalLoop=1;jettySize=auto;html=1;entryX=0.5;entryY=0;entryDx=0;entryDy=0;fontColor=#00CC00;" parent="1" source="q9yflRM0A-MpA3asN30z-35" target="q9yflRM0A-MpA3asN30z-37" edge="1">
          <mxGeometry relative="1" as="geometry">
            <Array as="points">
              <mxPoint x="991" y="903" />
              <mxPoint x="106" y="903" />
            </Array>
          </mxGeometry>
        </mxCell>
        <mxCell id="q9yflRM0A-MpA3asN30z-35" value="构建公共契约URL" style="rounded=1;whiteSpace=wrap;html=1;align=center;fillColor=#fff2cc;strokeColor=#d6b656;" parent="1" vertex="1">
          <mxGeometry x="931" y="840" width="120" height="40" as="geometry" />
        </mxCell>
        <mxCell id="q9yflRM0A-MpA3asN30z-37" value="服务导出" style="rounded=1;whiteSpace=wrap;html=1;align=center;fillColor=#fff2cc;strokeColor=#d6b656;" parent="1" vertex="1">
          <mxGeometry x="46" y="960" width="120" height="40" as="geometry" />
        </mxCell>
        <mxCell id="q9yflRM0A-MpA3asN30z-39" value="" style="verticalLabelPosition=bottom;shadow=0;dashed=0;align=center;html=1;verticalAlign=top;strokeWidth=1;shape=mxgraph.mockup.markup.curlyBrace;strokeColor=#999999;fontColor=#00CC00;rotation=-90;" parent="1" vertex="1">
          <mxGeometry x="141" y="956.25" width="100" height="47.5" as="geometry" />
        </mxCell>
        <mxCell id="q9yflRM0A-MpA3asN30z-40" value="不导出服务" style="text;html=1;strokeColor=none;fillColor=none;align=center;verticalAlign=middle;whiteSpace=wrap;rounded=0;fontColor=#00CC00;" parent="1" vertex="1">
          <mxGeometry x="211" y="920" width="90" height="20" as="geometry" />
        </mxCell>
        <mxCell id="q9yflRM0A-MpA3asN30z-43" style="edgeStyle=orthogonalEdgeStyle;rounded=0;orthogonalLoop=1;jettySize=auto;html=1;fontColor=#00CC00;" parent="1" source="q9yflRM0A-MpA3asN30z-41" edge="1">
          <mxGeometry relative="1" as="geometry">
            <mxPoint x="361" y="980" as="targetPoint" />
          </mxGeometry>
        </mxCell>
        <mxCell id="q9yflRM0A-MpA3asN30z-41" value="导出到本地" style="text;html=1;strokeColor=none;fillColor=none;align=center;verticalAlign=middle;whiteSpace=wrap;rounded=0;fontColor=#00CC00;" parent="1" vertex="1">
          <mxGeometry x="211" y="970" width="90" height="20" as="geometry" />
        </mxCell>
        <mxCell id="q9yflRM0A-MpA3asN30z-52" style="edgeStyle=orthogonalEdgeStyle;rounded=0;orthogonalLoop=1;jettySize=auto;html=1;fontColor=#00CC00;entryX=0;entryY=0.5;entryDx=0;entryDy=0;" parent="1" source="q9yflRM0A-MpA3asN30z-42" target="q9yflRM0A-MpA3asN30z-53" edge="1">
          <mxGeometry relative="1" as="geometry">
            <mxPoint x="361" y="1030" as="targetPoint" />
          </mxGeometry>
        </mxCell>
        <mxCell id="q9yflRM0A-MpA3asN30z-42" value="导出到远程" style="text;html=1;strokeColor=none;fillColor=none;align=center;verticalAlign=middle;whiteSpace=wrap;rounded=0;fontColor=#00CC00;" parent="1" vertex="1">
          <mxGeometry x="211" y="1020" width="90" height="20" as="geometry" />
        </mxCell>
        <mxCell id="q9yflRM0A-MpA3asN30z-45" style="edgeStyle=orthogonalEdgeStyle;rounded=0;orthogonalLoop=1;jettySize=auto;html=1;fontColor=#00CC00;entryX=0;entryY=0.5;entryDx=0;entryDy=0;" parent="1" source="q9yflRM0A-MpA3asN30z-44" target="q9yflRM0A-MpA3asN30z-46" edge="1">
          <mxGeometry relative="1" as="geometry">
            <mxPoint x="541" y="980" as="targetPoint" />
          </mxGeometry>
        </mxCell>
        <mxCell id="q9yflRM0A-MpA3asN30z-44" value="修改协议为 injvm" style="rounded=1;whiteSpace=wrap;html=1;align=center;fillColor=#fff2cc;strokeColor=#d6b656;" parent="1" vertex="1">
          <mxGeometry x="361" y="965" width="110" height="30" as="geometry" />
        </mxCell>
        <mxCell id="q9yflRM0A-MpA3asN30z-47" style="edgeStyle=orthogonalEdgeStyle;rounded=0;orthogonalLoop=1;jettySize=auto;html=1;fontColor=#00CC00;entryX=0;entryY=0.5;entryDx=0;entryDy=0;" parent="1" source="q9yflRM0A-MpA3asN30z-46" target="q9yflRM0A-MpA3asN30z-49" edge="1">
          <mxGeometry relative="1" as="geometry">
            <mxPoint x="721" y="980" as="targetPoint" />
          </mxGeometry>
        </mxCell>
        <mxCell id="q9yflRM0A-MpA3asN30z-46" value="包装为Invoker" style="rounded=1;whiteSpace=wrap;html=1;align=center;fillColor=#fff2cc;strokeColor=#d6b656;" parent="1" vertex="1">
          <mxGeometry x="521" y="965" width="110" height="30" as="geometry" />
        </mxCell>
        <mxCell id="q9yflRM0A-MpA3asN30z-60" style="edgeStyle=orthogonalEdgeStyle;rounded=0;orthogonalLoop=1;jettySize=auto;html=1;exitX=1;exitY=0.5;exitDx=0;exitDy=0;fontColor=#00CC00;" parent="1" source="q9yflRM0A-MpA3asN30z-49" target="q9yflRM0A-MpA3asN30z-59" edge="1">
          <mxGeometry relative="1" as="geometry" />
        </mxCell>
        <mxCell id="q9yflRM0A-MpA3asN30z-49" value="Exporter" style="rounded=1;whiteSpace=wrap;html=1;align=center;fillColor=#fff2cc;strokeColor=#d6b656;" parent="1" vertex="1">
          <mxGeometry x="761" y="965" width="110" height="30" as="geometry" />
        </mxCell>
        <mxCell id="q9yflRM0A-MpA3asN30z-50" value="Protocol.export()" style="text;html=1;strokeColor=none;fillColor=none;align=center;verticalAlign=middle;whiteSpace=wrap;rounded=0;fontColor=#00CC00;" parent="1" vertex="1">
          <mxGeometry x="631" y="950" width="120" height="30" as="geometry" />
        </mxCell>
        <mxCell id="q9yflRM0A-MpA3asN30z-55" style="edgeStyle=orthogonalEdgeStyle;rounded=0;orthogonalLoop=1;jettySize=auto;html=1;fontColor=#00CC00;" parent="1" source="q9yflRM0A-MpA3asN30z-53" edge="1">
          <mxGeometry relative="1" as="geometry">
            <mxPoint x="611" y="1030" as="targetPoint" />
          </mxGeometry>
        </mxCell>
        <mxCell id="q9yflRM0A-MpA3asN30z-53" value="ProxyFactory.getInvoker()" style="rounded=1;whiteSpace=wrap;html=1;align=center;fillColor=#fff2cc;strokeColor=#d6b656;" parent="1" vertex="1">
          <mxGeometry x="391" y="1012.5" width="150" height="35" as="geometry" />
        </mxCell>
        <mxCell id="q9yflRM0A-MpA3asN30z-54" value="获取 Invoker" style="text;html=1;strokeColor=none;fillColor=none;align=center;verticalAlign=middle;whiteSpace=wrap;rounded=0;fontColor=#00CC00;" parent="1" vertex="1">
          <mxGeometry x="291" y="1000" width="100" height="29" as="geometry" />
        </mxCell>
        <mxCell id="q9yflRM0A-MpA3asN30z-57" style="edgeStyle=orthogonalEdgeStyle;rounded=0;orthogonalLoop=1;jettySize=auto;html=1;exitX=1;exitY=0.5;exitDx=0;exitDy=0;fontColor=#00CC00;" parent="1" source="q9yflRM0A-MpA3asN30z-56" edge="1">
          <mxGeometry relative="1" as="geometry">
            <mxPoint x="821" y="1000" as="targetPoint" />
          </mxGeometry>
        </mxCell>
        <mxCell id="q9yflRM0A-MpA3asN30z-64" style="edgeStyle=orthogonalEdgeStyle;rounded=0;orthogonalLoop=1;jettySize=auto;html=1;exitX=0.5;exitY=1;exitDx=0;exitDy=0;entryX=0.5;entryY=0;entryDx=0;entryDy=0;entryPerimeter=0;fontColor=#00CC00;dashed=1;strokeColor=#FF3399;" parent="1" source="q9yflRM0A-MpA3asN30z-56" target="q9yflRM0A-MpA3asN30z-62" edge="1">
          <mxGeometry relative="1" as="geometry" />
        </mxCell>
        <mxCell id="q9yflRM0A-MpA3asN30z-56" value="包装Invoker" style="rounded=1;whiteSpace=wrap;html=1;align=center;fillColor=#fff2cc;strokeColor=#d6b656;" parent="1" vertex="1">
          <mxGeometry x="611" y="1012.5" width="110" height="37.5" as="geometry" />
        </mxCell>
        <mxCell id="q9yflRM0A-MpA3asN30z-58" value="Protocol.export()" style="text;html=1;strokeColor=none;fillColor=none;align=center;verticalAlign=middle;whiteSpace=wrap;rounded=0;fontColor=#00CC00;" parent="1" vertex="1">
          <mxGeometry x="711" y="1003.75" width="120" height="30" as="geometry" />
        </mxCell>
        <mxCell id="q9yflRM0A-MpA3asN30z-68" style="edgeStyle=orthogonalEdgeStyle;rounded=0;orthogonalLoop=1;jettySize=auto;html=1;strokeColor=#FF3399;fontColor=#00CC00;" parent="1" source="q9yflRM0A-MpA3asN30z-59" edge="1">
          <mxGeometry relative="1" as="geometry">
            <mxPoint x="1035" y="1050" as="targetPoint" />
          </mxGeometry>
        </mxCell>
        <mxCell id="q9yflRM0A-MpA3asN30z-59" value="将exproter 添加到 List&amp;lt;Exporter&amp;gt;" style="rounded=1;whiteSpace=wrap;html=1;align=center;fillColor=#fff2cc;strokeColor=#d6b656;" parent="1" vertex="1">
          <mxGeometry x="940" y="963.75" width="190" height="32.5" as="geometry" />
        </mxCell>
        <mxCell id="q9yflRM0A-MpA3asN30z-62" value="" style="verticalLabelPosition=bottom;shadow=0;dashed=0;align=center;html=1;verticalAlign=top;strokeWidth=1;shape=mxgraph.mockup.markup.curlyBrace;strokeColor=#999999;fontColor=#00CC00;" parent="1" vertex="1">
          <mxGeometry x="593.5" y="1093" width="145" height="20" as="geometry" />
        </mxCell>
        <mxCell id="q9yflRM0A-MpA3asN30z-66" style="edgeStyle=orthogonalEdgeStyle;rounded=0;orthogonalLoop=1;jettySize=auto;html=1;exitX=0.5;exitY=1;exitDx=0;exitDy=0;dashed=1;strokeColor=#FF3399;fontColor=#00CC00;entryX=0.5;entryY=0;entryDx=0;entryDy=0;" parent="1" source="q9yflRM0A-MpA3asN30z-63" target="q9yflRM0A-MpA3asN30z-67" edge="1">
          <mxGeometry relative="1" as="geometry">
            <mxPoint x="586" y="1190" as="targetPoint" />
          </mxGeometry>
        </mxCell>
        <mxCell id="q9yflRM0A-MpA3asN30z-63" value="本地启动服务" style="rounded=1;whiteSpace=wrap;html=1;align=center;fillColor=#fff2cc;strokeColor=#d6b656;" parent="1" vertex="1">
          <mxGeometry x="531" y="1113" width="110" height="37.5" as="geometry" />
        </mxCell>
        <mxCell id="-Wx994D3Uyu8Wx67w-C6-22" style="edgeStyle=orthogonalEdgeStyle;rounded=0;orthogonalLoop=1;jettySize=auto;html=1;exitX=0.5;exitY=1;exitDx=0;exitDy=0;strokeColor=#000000;fontColor=#00CC00;" edge="1" parent="1" source="q9yflRM0A-MpA3asN30z-65" target="-Wx994D3Uyu8Wx67w-C6-21">
          <mxGeometry relative="1" as="geometry" />
        </mxCell>
        <mxCell id="q9yflRM0A-MpA3asN30z-65" value="向注册中心注册" style="rounded=1;whiteSpace=wrap;html=1;align=center;fillColor=#fff2cc;strokeColor=#d6b656;" parent="1" vertex="1">
          <mxGeometry x="681" y="1113" width="110" height="37.5" as="geometry" />
        </mxCell>
        <mxCell id="-Wx994D3Uyu8Wx67w-C6-6" style="edgeStyle=orthogonalEdgeStyle;rounded=0;orthogonalLoop=1;jettySize=auto;html=1;entryX=1;entryY=0.5;entryDx=0;entryDy=0;strokeColor=#000000;fontColor=#00CC00;" edge="1" parent="1" source="q9yflRM0A-MpA3asN30z-67" target="-Wx994D3Uyu8Wx67w-C6-4">
          <mxGeometry relative="1" as="geometry" />
        </mxCell>
        <mxCell id="q9yflRM0A-MpA3asN30z-67" value="DubboProtocol#export" style="rounded=1;whiteSpace=wrap;html=1;align=center;fillColor=#fff2cc;strokeColor=#d6b656;" parent="1" vertex="1">
          <mxGeometry x="516" y="1180" width="140" height="40" as="geometry" />
        </mxCell>
        <mxCell id="q9yflRM0A-MpA3asN30z-69" value="List&amp;lt;URL&amp;gt; 保存URL" style="rounded=1;whiteSpace=wrap;html=1;align=center;fillColor=#fff2cc;strokeColor=#d6b656;" parent="1" vertex="1">
          <mxGeometry x="940" y="1047.5" width="190" height="32.5" as="geometry" />
        </mxCell>
        <mxCell id="-Wx994D3Uyu8Wx67w-C6-1" value="Map&amp;lt;String , Exporter&amp;lt;?&amp;gt;&amp;gt;" style="text;html=1;strokeColor=none;fillColor=none;align=center;verticalAlign=middle;whiteSpace=wrap;rounded=0;fontColor=#00CC00;" vertex="1" parent="1">
          <mxGeometry x="600" y="290" width="165" height="22" as="geometry" />
        </mxCell>
        <mxCell id="-Wx994D3Uyu8Wx67w-C6-8" style="edgeStyle=orthogonalEdgeStyle;rounded=0;orthogonalLoop=1;jettySize=auto;html=1;strokeColor=#000000;fontColor=#00CC00;" edge="1" parent="1" source="-Wx994D3Uyu8Wx67w-C6-4">
          <mxGeometry relative="1" as="geometry">
            <mxPoint x="318" y="1200" as="targetPoint" />
          </mxGeometry>
        </mxCell>
        <mxCell id="-Wx994D3Uyu8Wx67w-C6-4" value="根据Invoker 获取 key" style="rounded=1;whiteSpace=wrap;html=1;align=center;fillColor=#fff2cc;strokeColor=#d6b656;" vertex="1" parent="1">
          <mxGeometry x="356" y="1185" width="126" height="30" as="geometry" />
        </mxCell>
        <mxCell id="-Wx994D3Uyu8Wx67w-C6-10" style="edgeStyle=orthogonalEdgeStyle;rounded=0;orthogonalLoop=1;jettySize=auto;html=1;exitX=0;exitY=0.5;exitDx=0;exitDy=0;entryX=1;entryY=0.5;entryDx=0;entryDy=0;strokeColor=#000000;fontColor=#00CC00;" edge="1" parent="1" source="-Wx994D3Uyu8Wx67w-C6-7" target="-Wx994D3Uyu8Wx67w-C6-9">
          <mxGeometry relative="1" as="geometry" />
        </mxCell>
        <mxCell id="-Wx994D3Uyu8Wx67w-C6-7" value="封装DubboExport" style="rounded=1;whiteSpace=wrap;html=1;align=center;fillColor=#fff2cc;strokeColor=#d6b656;" vertex="1" parent="1">
          <mxGeometry x="208" y="1185" width="108" height="30" as="geometry" />
        </mxCell>
        <mxCell id="-Wx994D3Uyu8Wx67w-C6-12" style="edgeStyle=orthogonalEdgeStyle;rounded=0;orthogonalLoop=1;jettySize=auto;html=1;exitX=0.5;exitY=0;exitDx=0;exitDy=0;entryX=0.5;entryY=1;entryDx=0;entryDy=0;strokeColor=#000000;fontColor=#00CC00;" edge="1" parent="1" source="-Wx994D3Uyu8Wx67w-C6-9" target="-Wx994D3Uyu8Wx67w-C6-11">
          <mxGeometry relative="1" as="geometry" />
        </mxCell>
        <mxCell id="-Wx994D3Uyu8Wx67w-C6-9" value="exporterMap保存" style="rounded=1;whiteSpace=wrap;html=1;align=center;fillColor=#fff2cc;strokeColor=#d6b656;" vertex="1" parent="1">
          <mxGeometry x="64" y="1185" width="108" height="30" as="geometry" />
        </mxCell>
        <mxCell id="-Wx994D3Uyu8Wx67w-C6-17" style="edgeStyle=orthogonalEdgeStyle;rounded=0;orthogonalLoop=1;jettySize=auto;html=1;exitX=1;exitY=0.5;exitDx=0;exitDy=0;strokeColor=#000000;fontColor=#00CC00;" edge="1" parent="1" source="-Wx994D3Uyu8Wx67w-C6-11">
          <mxGeometry relative="1" as="geometry">
            <mxPoint x="225" y="1132" as="targetPoint" />
          </mxGeometry>
        </mxCell>
        <mxCell id="-Wx994D3Uyu8Wx67w-C6-11" value="启动Netty服务" style="rounded=1;whiteSpace=wrap;html=1;align=center;fillColor=#fff2cc;strokeColor=#d6b656;" vertex="1" parent="1">
          <mxGeometry x="64" y="1116.75" width="108" height="30" as="geometry" />
        </mxCell>
        <mxCell id="-Wx994D3Uyu8Wx67w-C6-14" style="edgeStyle=orthogonalEdgeStyle;rounded=0;orthogonalLoop=1;jettySize=auto;html=1;exitX=0.5;exitY=1;exitDx=0;exitDy=0;dashed=1;strokeColor=#FF3399;fontColor=#00CC00;" edge="1" parent="1" source="-Wx994D3Uyu8Wx67w-C6-4">
          <mxGeometry relative="1" as="geometry">
            <mxPoint x="419" y="1243" as="targetPoint" />
            <mxPoint x="596" y="1160.5" as="sourcePoint" />
          </mxGeometry>
        </mxCell>
        <mxCell id="-Wx994D3Uyu8Wx67w-C6-15" value="Text" style="text;html=1;strokeColor=none;fillColor=none;align=center;verticalAlign=middle;whiteSpace=wrap;rounded=0;fontColor=#00CC00;" vertex="1" parent="1">
          <mxGeometry x="563" y="1383" width="40" height="20" as="geometry" />
        </mxCell>
        <mxCell id="-Wx994D3Uyu8Wx67w-C6-16" value="key的生成规则：InterfaceName:version:port" style="rounded=1;whiteSpace=wrap;html=1;align=center;fillColor=#fff2cc;strokeColor=#d6b656;" vertex="1" parent="1">
          <mxGeometry x="235" y="1241" width="252" height="36" as="geometry" />
        </mxCell>
        <mxCell id="-Wx994D3Uyu8Wx67w-C6-19" value="接收网络请求" style="rounded=1;whiteSpace=wrap;html=1;align=center;fillColor=#d5e8d4;strokeColor=#82b366;" vertex="1" parent="1">
          <mxGeometry x="224" y="1116.75" width="108" height="30" as="geometry" />
        </mxCell>
        <mxCell id="-Wx994D3Uyu8Wx67w-C6-24" style="edgeStyle=orthogonalEdgeStyle;rounded=0;orthogonalLoop=1;jettySize=auto;html=1;exitX=1;exitY=0.5;exitDx=0;exitDy=0;entryX=0;entryY=0.5;entryDx=0;entryDy=0;strokeColor=#000000;fontColor=#00CC00;" edge="1" parent="1" source="-Wx994D3Uyu8Wx67w-C6-21">
          <mxGeometry relative="1" as="geometry">
            <mxPoint x="831" y="1200.005" as="targetPoint" />
          </mxGeometry>
        </mxCell>
        <mxCell id="-Wx994D3Uyu8Wx67w-C6-21" value="将本地服务的网络通信提供给注册中心" style="rounded=1;whiteSpace=wrap;html=1;align=center;fillColor=#fff2cc;strokeColor=#d6b656;" vertex="1" parent="1">
          <mxGeometry x="681" y="1181.25" width="110" height="37.75" as="geometry" />
        </mxCell>
        <mxCell id="-Wx994D3Uyu8Wx67w-C6-25" value="Consumer&amp;nbsp; 拉取 &lt;br&gt;Provider service&amp;nbsp; 地址" style="rounded=1;whiteSpace=wrap;html=1;align=center;fillColor=#d5e8d4;strokeColor=#82b366;" vertex="1" parent="1">
          <mxGeometry x="830" y="1182.13" width="147" height="38.87" as="geometry" />
        </mxCell>
        <mxCell id="-Wx994D3Uyu8Wx67w-C6-28" value="provider提供的service , 会被封装成Invoker对象，然后传入DubboProtocol.export()&lt;br&gt;方法中，该Invoker 被封装成 DubboExporter , 并保存到 exporterMap集合中。" style="rounded=0;whiteSpace=wrap;html=1;align=left;dashed=1;dashPattern=1 4;strokeColor=#CCFFFF;fontColor=#67AB9F;" vertex="1" parent="1">
          <mxGeometry x="324" y="124.5" width="454" height="40.5" as="geometry" />
        </mxCell>
        <mxCell id="-Wx994D3Uyu8Wx67w-C6-29" value="在 DubboProtocol 暴露的 ProtocolServer 收到请求时， 经过一系列的解码处理， 最终会达到 DubboProtocol.requestHandler 这个 ExchangeHandler 对象中，&lt;br&gt;该 ExchangetHandler 对象会从 exportMap 集合中取出请求的 Invoker , 并调用其 invoker() 方法处理请求" style="rounded=0;whiteSpace=wrap;html=1;align=left;dashed=1;dashPattern=1 4;strokeColor=#CCFFFF;fontColor=#67AB9F;" vertex="1" parent="1">
          <mxGeometry x="231" y="208" width="480" height="67" as="geometry" />
        </mxCell>
      </root>
    </mxGraphModel>
  </diagram>
</mxfile>
